<svg xmlns="http://www.w3.org/2000/svg" width="120" height="124" fill="none" viewBox="0 0 120 124">
  <path d="M0 0h105v122H0z"/>
  <g filter="url(#a)">
    <ellipse cx="76.814" cy="87.461" fill="#0B1219" rx="4.239" ry="21.772" transform="rotate(89.416 76.814 87.46)"/>
  </g>
  <g filter="url(#b)">
    <ellipse cx="43.814" cy="87.461" fill="#0B1219" rx="4.239" ry="21.772" transform="rotate(89.416 43.814 87.46)"/>
  </g>
  <path fill="#DADCDE" d="M63.125 44a1.374 1.374 0 0 1-1.375-1.375v-13.75a9.623 9.623 0 0 0-9.625-9.625 9.623 9.623 0 0 0-9.625 9.625v13.75a1.374 1.374 0 0 1-2.347.972 1.374 1.374 0 0 1-.403-.972v-13.75c0-3.282 1.304-6.43 3.625-8.75a12.372 12.372 0 0 1 17.5 0 12.372 12.372 0 0 1 3.625 8.75v13.75A1.374 1.374 0 0 1 63.125 44z"/>
  <path fill="#24AEB1" d="M65.875 92.125h-46.75l2.75-55h41.25l2.75 55z"/>
  <path fill="#fff" fill-rule="evenodd" d="M37.674 62.814v6.335h6.568v4.902l-4.6-1.536.006-.016.004-.008-2.272-.732c-4.541-1.516-6.993-6.294-5.553-10.74l.133-.38c1.646-4.378 6.58-6.69 11.12-5.174l1.162.385v6.964h-6.568zm18.904 0a8.715 8.715 0 0 0-5.16-4.565l-.646-.215v4.78h5.806zM50.772 74.73c2.77-.701 5.14-2.706 6.134-5.55.005-.011.007-.022.01-.033h-6.144v5.583z" clip-rule="evenodd"/>
  <path fill="#0B7E81" d="M76.875 92.125h-11l-2.75-55h11l2.75 55z"/>
  <path fill="#0B1219" fill-opacity=".3" d="M71.456 85.248c-.028.002-.055.002-.083.002a1.378 1.378 0 0 1-1.372-1.295l-2.75-46.75-.001-.08h2.753l2.745 46.67a1.375 1.375 0 0 1-1.292 1.454z"/>
  <path fill="#EBA72E" d="M98.875 92.125h-11l-.172-2.222V89.9l-2.578-33.526h11l2.535 32.947v.001l.215 2.802z"/>
  <path fill="#E09F2C" d="M93.513 85.243a1.37 1.37 0 0 1-1.506-1.231l-.05-.491-2.7-27.008a1.275 1.275 0 0 1-.007-.138h2.757l2.702 27.02.034.343c.018.18 0 .36-.051.534a1.385 1.385 0 0 1-.666.814c-.16.086-.334.14-.513.157z"/>
  <path fill="#E09F2C" d="M98.875 92.125h-1.653l-3.847-5.772-3.847 5.772h-1.653l-.172-2.222V89.9l4.254-6.38.273-.41a1.378 1.378 0 0 1 2.29.001l.189.283 3.951 5.927v.001l.215 2.802z"/>
  <path fill="#F7B030" d="M87.875 92.125h-35.75l2.75-35.75h30.25l2.75 35.75z"/>
  <path fill="#fff" fill-rule="evenodd" d="M65.721 78.646v3.766h3.905v2.915l-2.735-.914.004-.008.002-.006-1.35-.435c-2.7-.901-4.158-3.742-3.302-6.386l.079-.226c.979-2.602 3.912-3.977 6.611-3.076l.691.23v4.14h-3.905zm11.24 0a5.185 5.185 0 0 0-3.068-2.714l-.384-.128v2.841h3.452zm-3.452 7.085c1.647-.417 3.055-1.608 3.647-3.3l.002-.006.002-.007.002-.006h-3.653v3.32z" clip-rule="evenodd"/>
  <path fill="#E9EEF2" d="M71.375 71.25h-2.75a6.885 6.885 0 0 1-6.875-6.875v-3a1.374 1.374 0 0 1 2.347-.972c.258.258.403.607.403.972v3a4.124 4.124 0 0 0 1.21 2.915 4.124 4.124 0 0 0 2.915 1.21h2.75a4.124 4.124 0 0 0 2.915-1.21 4.124 4.124 0 0 0 1.21-2.915v-3a1.374 1.374 0 0 1 2.347-.972c.258.258.403.607.403.972v3a6.885 6.885 0 0 1-6.875 6.875zM32.875 44a1.374 1.374 0 0 1-1.375-1.375v-13.75c0-3.282 1.304-6.43 3.625-8.75a12.372 12.372 0 0 1 17.5 0 12.372 12.372 0 0 1 3.625 8.75v13.75a1.374 1.374 0 0 1-2.347.972 1.374 1.374 0 0 1-.403-.972v-13.75a9.623 9.623 0 0 0-9.625-9.625 9.623 9.623 0 0 0-9.625 9.625v13.75A1.374 1.374 0 0 1 32.875 44z"/>
  <defs>
    <filter id="a" width="81.541" height="46.49" x="38.043" y="77.216" color-interpolation-filters="sRGB" filterUnits="userSpaceOnUse">
      <feFlood flood-opacity="0" result="BackgroundImageFix"/>
      <feColorMatrix in="SourceAlpha" values="0 0 0 0 0 0 0 0 0 0 0 0 0 0 0 0 0 0 127 0"/>
      <feOffset dx="2" dy="13"/>
      <feGaussianBlur stdDeviation="9.5"/>
      <feColorMatrix values="0 0 0 0 0.968627 0 0 0 0 0.690196 0 0 0 0 0.188235 0 0 0 0.7 0"/>
      <feBlend in2="BackgroundImageFix" result="effect1_dropShadow"/>
      <feBlend in="SourceGraphic" in2="effect1_dropShadow" result="shape"/>
    </filter>
    <filter id="b" width="81.541" height="46.49" x="5.043" y="77.216" color-interpolation-filters="sRGB" filterUnits="userSpaceOnUse">
      <feFlood flood-opacity="0" result="BackgroundImageFix"/>
      <feColorMatrix in="SourceAlpha" values="0 0 0 0 0 0 0 0 0 0 0 0 0 0 0 0 0 0 127 0"/>
      <feOffset dx="2" dy="13"/>
      <feGaussianBlur stdDeviation="9.5"/>
      <feColorMatrix values="0 0 0 0 0.141176 0 0 0 0 0.682353 0 0 0 0 0.694118 0 0 0 0.8 0"/>
      <feBlend in2="BackgroundImageFix" result="effect1_dropShadow"/>
      <feBlend in="SourceGraphic" in2="effect1_dropShadow" result="shape"/>
    </filter>
  </defs>
</svg>
